<svg width="172" height="69" viewBox="0 0 172 69" fill="none" xmlns="http://www.w3.org/2000/svg">
<path d="M8.15922 35V6.6H20.1992C21.5059 6.6 22.7059 6.86666 23.7992 7.4C24.8926 7.93333 25.8392 8.65333 26.6392 9.56C27.4659 10.4667 28.1059 11.48 28.5592 12.6C29.0126 13.72 29.2392 14.8667 29.2392 16.04C29.2392 17.64 28.8659 19.16 28.1192 20.6C27.3726 22.04 26.3459 23.2133 25.0392 24.12C23.7326 25.0267 22.1859 25.48 20.3992 25.48H13.6792V35H8.15922ZM13.6792 20.64H20.0792C20.7459 20.64 21.3459 20.4533 21.8792 20.08C22.4126 19.7067 22.8392 19.1733 23.1592 18.48C23.4792 17.76 23.6392 16.9467 23.6392 16.04C23.6392 15.0533 23.4526 14.2133 23.0792 13.52C22.7326 12.8267 22.2659 12.3067 21.6792 11.96C21.1192 11.6133 20.5059 11.44 19.8392 11.44H13.6792V20.64ZM41.8514 35.4C40.1714 35.4 38.6514 35.12 37.2914 34.56C35.9314 33.9733 34.7714 33.1867 33.8114 32.2C32.8514 31.1867 32.1047 30.04 31.5714 28.76C31.0647 27.4533 30.8114 26.08 30.8114 24.64C30.8114 22.64 31.2514 20.8133 32.1314 19.16C33.0381 17.5067 34.3181 16.1867 35.9714 15.2C37.6514 14.1867 39.6247 13.68 41.8914 13.68C44.1847 13.68 46.1447 14.1867 47.7714 15.2C49.3981 16.1867 50.6381 17.5067 51.4914 19.16C52.3714 20.7867 52.8114 22.5467 52.8114 24.44C52.8114 24.76 52.7981 25.0933 52.7714 25.44C52.7447 25.76 52.7181 26.0267 52.6914 26.24H36.4914C36.5981 27.3067 36.9047 28.24 37.4114 29.04C37.9447 29.84 38.6114 30.4533 39.4114 30.88C40.2381 31.28 41.1181 31.48 42.0514 31.48C43.1181 31.48 44.1181 31.2267 45.0514 30.72C46.0114 30.1867 46.6647 29.4933 47.0114 28.64L51.6114 29.92C51.1047 30.9867 50.3714 31.9333 49.4114 32.76C48.4781 33.5867 47.3714 34.24 46.0914 34.72C44.8114 35.1733 43.3981 35.4 41.8514 35.4ZM36.3714 22.84H47.3314C47.2247 21.7733 46.9181 20.8533 46.4114 20.08C45.9314 19.28 45.2914 18.6667 44.4914 18.24C43.6914 17.7867 42.7981 17.56 41.8114 17.56C40.8514 17.56 39.9714 17.7867 39.1714 18.24C38.3981 18.6667 37.7581 19.28 37.2514 20.08C36.7714 20.8533 36.4781 21.7733 36.3714 22.84ZM65.7567 35.4C64.0501 35.4 62.5167 35.12 61.1567 34.56C59.7967 33.9733 58.6367 33.1733 57.6767 32.16C56.7434 31.1467 56.0234 29.9867 55.5167 28.68C55.0101 27.3733 54.7567 26 54.7567 24.56C54.7567 23.0933 55.0101 21.7067 55.5167 20.4C56.0234 19.0933 56.7434 17.9333 57.6767 16.92C58.6367 15.9067 59.7967 15.12 61.1567 14.56C62.5167 13.9733 64.0501 13.68 65.7567 13.68C67.4634 13.68 68.9834 13.9733 70.3167 14.56C71.6767 15.12 72.8367 15.9067 73.7967 16.92C74.7567 17.9333 75.4767 19.0933 75.9567 20.4C76.4634 21.7067 76.7167 23.0933 76.7167 24.56C76.7167 26 76.4634 27.3733 75.9567 28.68C75.4767 29.9867 74.7567 31.1467 73.7967 32.16C72.8634 33.1733 71.7167 33.9733 70.3567 34.56C68.9967 35.12 67.4634 35.4 65.7567 35.4ZM60.2767 24.56C60.2767 25.7867 60.5167 26.88 60.9967 27.84C61.4767 28.7733 62.1301 29.5067 62.9567 30.04C63.7834 30.5733 64.7167 30.84 65.7567 30.84C66.7701 30.84 67.6901 30.5733 68.5167 30.04C69.3434 29.48 69.9967 28.7333 70.4767 27.8C70.9834 26.84 71.2367 25.7467 71.2367 24.52C71.2367 23.32 70.9834 22.24 70.4767 21.28C69.9967 20.32 69.3434 19.5733 68.5167 19.04C67.6901 18.5067 66.7701 18.24 65.7567 18.24C64.7167 18.24 63.7834 18.52 62.9567 19.08C62.1301 19.6133 61.4767 20.36 60.9967 21.32C60.5167 22.2533 60.2767 23.3333 60.2767 24.56ZM92.8945 35.4C91.2679 35.4 89.8279 35.04 88.5745 34.32C87.3479 33.5733 86.3879 32.5733 85.6945 31.32V43.52H80.3345V14.04H85.0145V17.64C85.8145 16.4133 86.8279 15.4533 88.0545 14.76C89.2812 14.04 90.6812 13.68 92.2545 13.68C93.6679 13.68 94.9612 13.96 96.1345 14.52C97.3345 15.08 98.3745 15.8667 99.2545 16.88C100.135 17.8667 100.815 19.0133 101.295 20.32C101.801 21.6 102.055 22.9867 102.055 24.48C102.055 26.5067 101.655 28.3467 100.855 30C100.081 31.6533 99.0012 32.9733 97.6145 33.96C96.2545 34.92 94.6812 35.4 92.8945 35.4ZM91.0945 30.84C91.9212 30.84 92.6679 30.6667 93.3345 30.32C94.0012 29.9733 94.5745 29.5067 95.0545 28.92C95.5612 28.3067 95.9345 27.6267 96.1745 26.88C96.4412 26.1067 96.5745 25.3067 96.5745 24.48C96.5745 23.6 96.4279 22.7867 96.1345 22.04C95.8679 21.2933 95.4679 20.64 94.9345 20.08C94.4012 19.4933 93.7745 19.04 93.0545 18.72C92.3612 18.4 91.6012 18.24 90.7745 18.24C90.2679 18.24 89.7479 18.3333 89.2145 18.52C88.7079 18.68 88.2145 18.92 87.7345 19.24C87.2545 19.56 86.8279 19.9333 86.4545 20.36C86.1079 20.7867 85.8545 21.2533 85.6945 21.76V26.68C86.0145 27.4533 86.4412 28.16 86.9745 28.8C87.5345 29.44 88.1745 29.9467 88.8945 30.32C89.6145 30.6667 90.3479 30.84 91.0945 30.84ZM125.015 35.4C123.335 35.4 121.815 35.12 120.455 34.56C119.095 33.9733 117.935 33.1867 116.975 32.2C116.015 31.1867 115.269 30.04 114.735 28.76C114.229 27.4533 113.975 26.08 113.975 24.64C113.975 22.64 114.415 20.8133 115.295 19.16C116.202 17.5067 117.482 16.1867 119.135 15.2C120.815 14.1867 122.789 13.68 125.055 13.68C127.349 13.68 129.309 14.1867 130.935 15.2C132.562 16.1867 133.802 17.5067 134.655 19.16C135.535 20.7867 135.975 22.5467 135.975 24.44C135.975 24.76 135.962 25.0933 135.935 25.44C135.909 25.76 135.882 26.0267 135.855 26.24H119.655C119.762 27.3067 120.069 28.24 120.575 29.04C121.109 29.84 121.775 30.4533 122.575 30.88C123.402 31.28 124.282 31.48 125.215 31.48C126.282 31.48 127.282 31.2267 128.215 30.72C129.175 30.1867 129.829 29.4933 130.175 28.64L134.775 29.92C134.269 30.9867 133.535 31.9333 132.575 32.76C131.642 33.5867 130.535 34.24 129.255 34.72C127.975 35.1733 126.562 35.4 125.015 35.4ZM119.535 22.84H130.495C130.389 21.7733 130.082 20.8533 129.575 20.08C129.095 19.28 128.455 18.6667 127.655 18.24C126.855 17.7867 125.962 17.56 124.975 17.56C124.015 17.56 123.135 17.7867 122.335 18.24C121.562 18.6667 120.922 19.28 120.415 20.08C119.935 20.8533 119.642 21.7733 119.535 22.84Z" fill="white"/>
<path d="M138.84 2.288H137.024V7H135.928V2.288H134.112V1.32H138.84V2.288ZM144.177 7V3.272L142.721 6.048H142.105L140.649 3.272V7H139.545V1.32H140.729L142.409 4.552L144.105 1.32H145.281V7H144.177Z" fill="white"/>
<path d="M104.552 22.8H109.912V45.28C109.912 46.24 110.072 46.8933 110.392 47.24C110.712 47.56 111.152 47.72 111.712 47.72C112.139 47.72 112.579 47.6667 113.032 47.56C113.486 47.4533 113.886 47.32 114.232 47.16L114.952 51.24C114.232 51.5867 113.392 51.8533 112.432 52.04C111.472 52.2267 110.606 52.32 109.832 52.32C108.152 52.32 106.846 51.88 105.912 51C105.006 50.0933 104.552 48.8133 104.552 47.16V22.8Z" fill="white"/>
<path d="M84.0747 67.0819C90.2381 67.0819 96.4869 67.378 102.634 66.9169C111.403 66.2593 118.352 62.9362 126.226 59.4105C133.501 56.1532 140.372 50.8109 146.023 45.2226C150.702 40.5954 154.496 35.2651 159.056 30.7048" stroke="white" stroke-width="2" stroke-linecap="round"/>
<path d="M145.693 30.7048C150.801 30.194 155.953 27.1009 160.458 24.8482C161.981 24.0867 167.288 21.0829 169.078 21.8786C173.613 23.8941 166.48 34.2714 166.48 37.3863" stroke="white" stroke-width="2" stroke-linecap="round"/>
</svg>
